<svg width="184" height="67" viewBox="0 0 184 67" fill="none" xmlns="http://www.w3.org/2000/svg">
<path d="M0 22.3333C0 9.99898 9.99897 0 22.3333 0H139.333C164.002 0 184 19.9979 184 44.6667C184 57.001 174.001 67 161.667 67H44.6667C19.9979 67 0 47.0021 0 22.3333Z" fill="#8BAA36"/>
<path d="M51.104 40L48.448 35.44H46.688V40H45.232V28.848H48.832C49.6747 28.848 50.384 28.992 50.96 29.28C51.5467 29.568 51.984 29.9573 52.272 30.448C52.56 30.9387 52.704 31.4987 52.704 32.128C52.704 32.896 52.48 33.5733 52.032 34.16C51.5947 34.7467 50.9333 35.136 50.048 35.328L52.848 40H51.104ZM46.688 34.272H48.832C49.6213 34.272 50.2133 34.08 50.608 33.696C51.0027 33.3013 51.2 32.7787 51.2 32.128C51.2 31.4667 51.0027 30.9547 50.608 30.592C50.224 30.2293 49.632 30.048 48.832 30.048H46.688V34.272ZM62.9664 35.28C62.9664 35.5573 62.9504 35.8507 62.9184 36.16H55.9104C55.9637 37.024 56.257 37.7013 56.7904 38.192C57.3344 38.672 57.9904 38.912 58.7584 38.912C59.3877 38.912 59.9104 38.768 60.3264 38.48C60.753 38.1813 61.0517 37.7867 61.2224 37.296H62.7904C62.5557 38.1387 62.0864 38.8267 61.3824 39.36C60.6784 39.8827 59.8037 40.144 58.7584 40.144C57.9264 40.144 57.1797 39.9573 56.5184 39.584C55.8677 39.2107 55.3557 38.6827 54.9824 38C54.609 37.3067 54.4224 36.5067 54.4224 35.6C54.4224 34.6933 54.6037 33.8987 54.9664 33.216C55.329 32.5333 55.8357 32.0107 56.4864 31.648C57.1477 31.2747 57.905 31.088 58.7584 31.088C59.5904 31.088 60.3264 31.2693 60.9664 31.632C61.6064 31.9947 62.097 32.496 62.4384 33.136C62.7904 33.7653 62.9664 34.48 62.9664 35.28ZM61.4624 34.976C61.4624 34.4213 61.3397 33.9467 61.0944 33.552C60.849 33.1467 60.513 32.8427 60.0864 32.64C59.6704 32.4267 59.2064 32.32 58.6944 32.32C57.9584 32.32 57.329 32.5547 56.8064 33.024C56.2944 33.4933 56.001 34.144 55.9264 34.976H61.4624ZM68.5043 31.088C69.2616 31.088 69.9229 31.2533 70.4883 31.584C71.0643 31.9147 71.4909 32.3307 71.7683 32.832V31.232H73.2403V40.192C73.2403 40.992 73.0696 41.7013 72.7283 42.32C72.3869 42.9493 71.8963 43.44 71.2563 43.792C70.6269 44.144 69.8909 44.32 69.0483 44.32C67.8963 44.32 66.9363 44.048 66.1683 43.504C65.4003 42.96 64.9469 42.2187 64.8083 41.28H66.2483C66.4083 41.8133 66.7389 42.24 67.2403 42.56C67.7416 42.8907 68.3443 43.056 69.0483 43.056C69.8483 43.056 70.4989 42.8053 71.0003 42.304C71.5123 41.8027 71.7683 41.0987 71.7683 40.192V38.352C71.4803 38.864 71.0536 39.2907 70.4883 39.632C69.9229 39.9733 69.2616 40.144 68.5043 40.144C67.7256 40.144 67.0163 39.952 66.3763 39.568C65.7469 39.184 65.2509 38.6453 64.8883 37.952C64.5256 37.2587 64.3443 36.4693 64.3443 35.584C64.3443 34.688 64.5256 33.904 64.8883 33.232C65.2509 32.5493 65.7469 32.0213 66.3763 31.648C67.0163 31.2747 67.7256 31.088 68.5043 31.088ZM71.7683 35.6C71.7683 34.9387 71.6349 34.3627 71.3683 33.872C71.1016 33.3813 70.7389 33.008 70.2803 32.752C69.8323 32.4853 69.3363 32.352 68.7923 32.352C68.2483 32.352 67.7523 32.48 67.3043 32.736C66.8563 32.992 66.4989 33.3653 66.2323 33.856C65.9656 34.3467 65.8323 34.9227 65.8323 35.584C65.8323 36.256 65.9656 36.8427 66.2323 37.344C66.4989 37.8347 66.8563 38.2133 67.3043 38.48C67.7523 38.736 68.2483 38.864 68.7923 38.864C69.3363 38.864 69.8323 38.736 70.2803 38.48C70.7389 38.2133 71.1016 37.8347 71.3683 37.344C71.6349 36.8427 71.7683 36.2613 71.7683 35.6ZM76.4528 29.808C76.1754 29.808 75.9408 29.712 75.7488 29.52C75.5568 29.328 75.4608 29.0933 75.4608 28.816C75.4608 28.5387 75.5568 28.304 75.7488 28.112C75.9408 27.92 76.1754 27.824 76.4528 27.824C76.7194 27.824 76.9434 27.92 77.1248 28.112C77.3168 28.304 77.4128 28.5387 77.4128 28.816C77.4128 29.0933 77.3168 29.328 77.1248 29.52C76.9434 29.712 76.7194 29.808 76.4528 29.808ZM77.1568 31.232V40H75.7008V31.232H77.1568ZM82.7423 40.144C82.0703 40.144 81.4676 40.032 80.9343 39.808C80.4009 39.5733 79.9796 39.2533 79.6703 38.848C79.3609 38.432 79.1903 37.9573 79.1583 37.424H80.6623C80.7049 37.8613 80.9076 38.2187 81.2703 38.496C81.6436 38.7733 82.1289 38.912 82.7263 38.912C83.2809 38.912 83.7183 38.7893 84.0383 38.544C84.3583 38.2987 84.5183 37.9893 84.5183 37.616C84.5183 37.232 84.3476 36.9493 84.0063 36.768C83.6649 36.576 83.1369 36.3893 82.4223 36.208C81.7716 36.0373 81.2383 35.8667 80.8223 35.696C80.4169 35.5147 80.0649 35.2533 79.7663 34.912C79.4783 34.56 79.3343 34.1013 79.3343 33.536C79.3343 33.088 79.4676 32.6773 79.7343 32.304C80.0009 31.9307 80.3796 31.6373 80.8703 31.424C81.3609 31.2 81.9209 31.088 82.5503 31.088C83.5209 31.088 84.3049 31.3333 84.9023 31.824C85.4996 32.3147 85.8196 32.9867 85.8623 33.84H84.4063C84.3743 33.3813 84.1876 33.0133 83.8463 32.736C83.5156 32.4587 83.0676 32.32 82.5023 32.32C81.9796 32.32 81.5636 32.432 81.2543 32.656C80.9449 32.88 80.7903 33.1733 80.7903 33.536C80.7903 33.824 80.8809 34.064 81.0623 34.256C81.2543 34.4373 81.4889 34.5867 81.7663 34.704C82.0543 34.8107 82.4489 34.9333 82.9503 35.072C83.5796 35.2427 84.0916 35.4133 84.4863 35.584C84.8809 35.744 85.2169 35.9893 85.4943 36.32C85.7823 36.6507 85.9316 37.0827 85.9423 37.616C85.9423 38.096 85.8089 38.528 85.5423 38.912C85.2756 39.296 84.8969 39.6 84.4063 39.824C83.9263 40.0373 83.3716 40.144 82.7423 40.144ZM89.7736 32.432V37.6C89.7736 38.0267 89.8643 38.3307 90.0456 38.512C90.227 38.6827 90.5416 38.768 90.9896 38.768H92.0616V40H90.7496C89.939 40 89.331 39.8133 88.9256 39.44C88.5203 39.0667 88.3176 38.4533 88.3176 37.6V32.432H87.1816V31.232H88.3176V29.024H89.7736V31.232H92.0616V32.432H89.7736ZM95.2818 32.656C95.5378 32.1547 95.9004 31.7653 96.3698 31.488C96.8498 31.2107 97.4311 31.072 98.1138 31.072V32.576H97.7298C96.0978 32.576 95.2818 33.4613 95.2818 35.232V40H93.8258V31.232H95.2818V32.656ZM99.2505 35.584C99.2505 34.688 99.4318 33.904 99.7945 33.232C100.157 32.5493 100.653 32.0213 101.283 31.648C101.923 31.2747 102.632 31.088 103.411 31.088C104.179 31.088 104.845 31.2533 105.411 31.584C105.976 31.9147 106.397 32.3307 106.675 32.832V31.232H108.147V40H106.675V38.368C106.387 38.88 105.955 39.3067 105.379 39.648C104.813 39.9787 104.152 40.144 103.395 40.144C102.616 40.144 101.912 39.952 101.283 39.568C100.653 39.184 100.157 38.6453 99.7945 37.952C99.4318 37.2587 99.2505 36.4693 99.2505 35.584ZM106.675 35.6C106.675 34.9387 106.541 34.3627 106.275 33.872C106.008 33.3813 105.645 33.008 105.187 32.752C104.739 32.4853 104.243 32.352 103.699 32.352C103.155 32.352 102.659 32.48 102.211 32.736C101.763 32.992 101.405 33.3653 101.139 33.856C100.872 34.3467 100.739 34.9227 100.739 35.584C100.739 36.256 100.872 36.8427 101.139 37.344C101.405 37.8347 101.763 38.2133 102.211 38.48C102.659 38.736 103.155 38.864 103.699 38.864C104.243 38.864 104.739 38.736 105.187 38.48C105.645 38.2133 106.008 37.8347 106.275 37.344C106.541 36.8427 106.675 36.2613 106.675 35.6ZM112.383 32.432V37.6C112.383 38.0267 112.474 38.3307 112.655 38.512C112.836 38.6827 113.151 38.768 113.599 38.768H114.671V40H113.359C112.548 40 111.94 39.8133 111.535 39.44C111.13 39.0667 110.927 38.4533 110.927 37.6V32.432H109.791V31.232H110.927V29.024H112.383V31.232H114.671V32.432H112.383ZM117.187 29.808C116.91 29.808 116.675 29.712 116.483 29.52C116.291 29.328 116.195 29.0933 116.195 28.816C116.195 28.5387 116.291 28.304 116.483 28.112C116.675 27.92 116.91 27.824 117.187 27.824C117.454 27.824 117.678 27.92 117.859 28.112C118.051 28.304 118.147 28.5387 118.147 28.816C118.147 29.0933 118.051 29.328 117.859 29.52C117.678 29.712 117.454 29.808 117.187 29.808ZM117.891 31.232V40H116.435V31.232H117.891ZM124.197 40.144C123.375 40.144 122.629 39.9573 121.957 39.584C121.295 39.2107 120.773 38.6827 120.389 38C120.015 37.3067 119.829 36.5067 119.829 35.6C119.829 34.704 120.021 33.9147 120.405 33.232C120.799 32.5387 121.333 32.0107 122.005 31.648C122.677 31.2747 123.429 31.088 124.261 31.088C125.093 31.088 125.845 31.2747 126.517 31.648C127.189 32.0107 127.717 32.5333 128.101 33.216C128.495 33.8987 128.693 34.6933 128.693 35.6C128.693 36.5067 128.49 37.3067 128.085 38C127.69 38.6827 127.151 39.2107 126.469 39.584C125.786 39.9573 125.029 40.144 124.197 40.144ZM124.197 38.864C124.719 38.864 125.21 38.7413 125.669 38.496C126.127 38.2507 126.495 37.8827 126.773 37.392C127.061 36.9013 127.205 36.304 127.205 35.6C127.205 34.896 127.066 34.2987 126.789 33.808C126.511 33.3173 126.149 32.9547 125.701 32.72C125.253 32.4747 124.767 32.352 124.245 32.352C123.711 32.352 123.221 32.4747 122.773 32.72C122.335 32.9547 121.983 33.3173 121.717 33.808C121.45 34.2987 121.317 34.896 121.317 35.6C121.317 36.3147 121.445 36.9173 121.701 37.408C121.967 37.8987 122.319 38.2667 122.757 38.512C123.194 38.7467 123.674 38.864 124.197 38.864ZM134.879 31.072C135.946 31.072 136.81 31.3973 137.471 32.048C138.132 32.688 138.463 33.616 138.463 34.832V40H137.023V35.04C137.023 34.1653 136.804 33.4987 136.367 33.04C135.93 32.5707 135.332 32.336 134.575 32.336C133.807 32.336 133.194 32.576 132.735 33.056C132.287 33.536 132.063 34.2347 132.063 35.152V40H130.607V31.232H132.063V32.48C132.351 32.032 132.74 31.6853 133.231 31.44C133.732 31.1947 134.282 31.072 134.879 31.072Z" fill="#FAFAFA"/>
</svg>
