<svg width="95" height="45" viewBox="0 0 95 45" fill="none" xmlns="http://www.w3.org/2000/svg">
<path d="M1 15C1 7.26801 7.26801 1 15 1H65C81.0163 1 94 13.9837 94 30C94 37.732 87.732 44 80 44H30C13.9837 44 1 31.0163 1 15Z" stroke="#FAFAFA" stroke-width="2"/>
<path d="M28.172 27.098C27.528 27.098 26.9493 26.986 26.436 26.762C25.932 26.5287 25.5353 26.2113 25.246 25.81C24.9567 25.3993 24.8073 24.928 24.798 24.396H26.156C26.2027 24.8533 26.3893 25.2407 26.716 25.558C27.052 25.866 27.5373 26.02 28.172 26.02C28.7787 26.02 29.2547 25.8707 29.6 25.572C29.9547 25.264 30.132 24.872 30.132 24.396C30.132 24.0227 30.0293 23.7193 29.824 23.486C29.6187 23.2527 29.362 23.0753 29.054 22.954C28.746 22.8327 28.3307 22.702 27.808 22.562C27.164 22.394 26.646 22.226 26.254 22.058C25.8713 21.89 25.54 21.6287 25.26 21.274C24.9893 20.91 24.854 20.4247 24.854 19.818C24.854 19.286 24.9893 18.8147 25.26 18.404C25.5307 17.9933 25.9087 17.676 26.394 17.452C26.8887 17.228 27.4533 17.116 28.088 17.116C29.0027 17.116 29.7493 17.3447 30.328 17.802C30.916 18.2593 31.2473 18.866 31.322 19.622H29.922C29.8753 19.2487 29.6793 18.922 29.334 18.642C28.9887 18.3527 28.5313 18.208 27.962 18.208C27.43 18.208 26.996 18.348 26.66 18.628C26.324 18.8987 26.156 19.2813 26.156 19.776C26.156 20.1307 26.254 20.42 26.45 20.644C26.6553 20.868 26.9027 21.0407 27.192 21.162C27.4907 21.274 27.906 21.4047 28.438 21.554C29.082 21.7313 29.6 21.9087 29.992 22.086C30.384 22.254 30.72 22.52 31 22.884C31.28 23.2387 31.42 23.724 31.42 24.34C31.42 24.816 31.294 25.264 31.042 25.684C30.79 26.104 30.4167 26.4447 29.922 26.706C29.4273 26.9673 28.844 27.098 28.172 27.098ZM33.9528 18.082C33.7101 18.082 33.5048 17.998 33.3368 17.83C33.1688 17.662 33.0848 17.4567 33.0848 17.214C33.0848 16.9713 33.1688 16.766 33.3368 16.598C33.5048 16.43 33.7101 16.346 33.9528 16.346C34.1861 16.346 34.3821 16.43 34.5408 16.598C34.7088 16.766 34.7928 16.9713 34.7928 17.214C34.7928 17.4567 34.7088 17.662 34.5408 17.83C34.3821 17.998 34.1861 18.082 33.9528 18.082ZM34.5688 19.328V27H33.2948V19.328H34.5688ZM39.9041 19.202C40.5668 19.202 41.1454 19.3467 41.6401 19.636C42.1441 19.9253 42.5174 20.2893 42.7601 20.728V19.328H44.0481V27.168C44.0481 27.868 43.8988 28.4887 43.6001 29.03C43.3014 29.5807 42.8721 30.01 42.3121 30.318C41.7614 30.626 41.1174 30.78 40.3801 30.78C39.3721 30.78 38.5321 30.542 37.8601 30.066C37.1881 29.59 36.7914 28.9413 36.6701 28.12H37.9301C38.0701 28.5867 38.3594 28.96 38.7981 29.24C39.2368 29.5293 39.7641 29.674 40.3801 29.674C41.0801 29.674 41.6494 29.4547 42.0881 29.016C42.5361 28.5773 42.7601 27.9613 42.7601 27.168V25.558C42.5081 26.006 42.1348 26.3793 41.6401 26.678C41.1454 26.9767 40.5668 27.126 39.9041 27.126C39.2228 27.126 38.6021 26.958 38.0421 26.622C37.4914 26.286 37.0574 25.8147 36.7401 25.208C36.4228 24.6013 36.2641 23.9107 36.2641 23.136C36.2641 22.352 36.4228 21.666 36.7401 21.078C37.0574 20.4807 37.4914 20.0187 38.0421 19.692C38.6021 19.3653 39.2228 19.202 39.9041 19.202ZM42.7601 23.15C42.7601 22.5713 42.6434 22.0673 42.4101 21.638C42.1768 21.2087 41.8594 20.882 41.4581 20.658C41.0661 20.4247 40.6321 20.308 40.1561 20.308C39.6801 20.308 39.2461 20.42 38.8541 20.644C38.4621 20.868 38.1494 21.1947 37.9161 21.624C37.6828 22.0533 37.5661 22.5573 37.5661 23.136C37.5661 23.724 37.6828 24.2373 37.9161 24.676C38.1494 25.1053 38.4621 25.4367 38.8541 25.67C39.2461 25.894 39.6801 26.006 40.1561 26.006C40.6321 26.006 41.0661 25.894 41.4581 25.67C41.8594 25.4367 42.1768 25.1053 42.4101 24.676C42.6434 24.2373 42.7601 23.7287 42.7601 23.15ZM49.939 19.188C50.8724 19.188 51.6284 19.4727 52.207 20.042C52.7857 20.602 53.075 21.414 53.075 22.478V27H51.815V22.66C51.815 21.8947 51.6237 21.3113 51.241 20.91C50.8584 20.4993 50.3357 20.294 49.673 20.294C49.001 20.294 48.4644 20.504 48.063 20.924C47.671 21.344 47.475 21.9553 47.475 22.758V27H46.201V19.328H47.475V20.42C47.727 20.028 48.0677 19.7247 48.497 19.51C48.9357 19.2953 49.4164 19.188 49.939 19.188ZM60.1625 17.242V27H58.8885V17.242H60.1625ZM66.0719 19.188C67.0052 19.188 67.7612 19.4727 68.3399 20.042C68.9185 20.602 69.2079 21.414 69.2079 22.478V27H67.9479V22.66C67.9479 21.8947 67.7565 21.3113 67.3739 20.91C66.9912 20.4993 66.4685 20.294 65.8059 20.294C65.1339 20.294 64.5972 20.504 64.1959 20.924C63.8039 21.344 63.6079 21.9553 63.6079 22.758V27H62.3339V19.328H63.6079V20.42C63.8599 20.028 64.2005 19.7247 64.6299 19.51C65.0685 19.2953 65.5492 19.188 66.0719 19.188Z" fill="#FAFAFA"/>
</svg>
