<svg width="141" height="67" viewBox="0 0 141 67" fill="none" xmlns="http://www.w3.org/2000/svg">
<path d="M1 22.3333C1 10.5513 10.5513 1 22.3333 1H96.3333C120.45 1 140 20.5502 140 44.6667C140 56.4487 130.449 66 118.667 66H44.6667C20.5502 66 1 46.4498 1 22.3333Z" stroke="#FAFAFA" stroke-width="2"/>
<path d="M48.768 40.112C48.032 40.112 47.3707 39.984 46.784 39.728C46.208 39.4613 45.7547 39.0987 45.424 38.64C45.0933 38.1707 44.9227 37.632 44.912 37.024H46.464C46.5173 37.5467 46.7307 37.9893 47.104 38.352C47.488 38.704 48.0427 38.88 48.768 38.88C49.4613 38.88 50.0053 38.7093 50.4 38.368C50.8053 38.016 51.008 37.568 51.008 37.024C51.008 36.5973 50.8907 36.2507 50.656 35.984C50.4213 35.7173 50.128 35.5147 49.776 35.376C49.424 35.2373 48.9493 35.088 48.352 34.928C47.616 34.736 47.024 34.544 46.576 34.352C46.1387 34.16 45.76 33.8613 45.44 33.456C45.1307 33.04 44.976 32.4853 44.976 31.792C44.976 31.184 45.1307 30.6453 45.44 30.176C45.7493 29.7067 46.1813 29.344 46.736 29.088C47.3013 28.832 47.9467 28.704 48.672 28.704C49.7173 28.704 50.5707 28.9653 51.232 29.488C51.904 30.0107 52.2827 30.704 52.368 31.568H50.768C50.7147 31.1413 50.4907 30.768 50.096 30.448C49.7013 30.1173 49.1787 29.952 48.528 29.952C47.92 29.952 47.424 30.112 47.04 30.432C46.656 30.7413 46.464 31.1787 46.464 31.744C46.464 32.1493 46.576 32.48 46.8 32.736C47.0347 32.992 47.3173 33.1893 47.648 33.328C47.9893 33.456 48.464 33.6053 49.072 33.776C49.808 33.9787 50.4 34.1813 50.848 34.384C51.296 34.576 51.68 34.88 52 35.296C52.32 35.7013 52.48 36.256 52.48 36.96C52.48 37.504 52.336 38.016 52.048 38.496C51.76 38.976 51.3333 39.3653 50.768 39.664C50.2027 39.9627 49.536 40.112 48.768 40.112ZM55.3746 29.808C55.0973 29.808 54.8626 29.712 54.6706 29.52C54.4786 29.328 54.3826 29.0933 54.3826 28.816C54.3826 28.5387 54.4786 28.304 54.6706 28.112C54.8626 27.92 55.0973 27.824 55.3746 27.824C55.6413 27.824 55.8653 27.92 56.0466 28.112C56.2386 28.304 56.3346 28.5387 56.3346 28.816C56.3346 29.0933 56.2386 29.328 56.0466 29.52C55.8653 29.712 55.6413 29.808 55.3746 29.808ZM56.0786 31.232V40H54.6226V31.232H56.0786ZM62.1761 31.088C62.9335 31.088 63.5948 31.2533 64.1601 31.584C64.7361 31.9147 65.1628 32.3307 65.4401 32.832V31.232H66.9121V40.192C66.9121 40.992 66.7415 41.7013 66.4001 42.32C66.0588 42.9493 65.5681 43.44 64.9281 43.792C64.2988 44.144 63.5628 44.32 62.7201 44.32C61.5681 44.32 60.6081 44.048 59.8401 43.504C59.0721 42.96 58.6188 42.2187 58.4801 41.28H59.9201C60.0801 41.8133 60.4108 42.24 60.9121 42.56C61.4135 42.8907 62.0161 43.056 62.7201 43.056C63.5201 43.056 64.1708 42.8053 64.6721 42.304C65.1841 41.8027 65.4401 41.0987 65.4401 40.192V38.352C65.1521 38.864 64.7255 39.2907 64.1601 39.632C63.5948 39.9733 62.9335 40.144 62.1761 40.144C61.3975 40.144 60.6881 39.952 60.0481 39.568C59.4188 39.184 58.9228 38.6453 58.5601 37.952C58.1975 37.2587 58.0161 36.4693 58.0161 35.584C58.0161 34.688 58.1975 33.904 58.5601 33.232C58.9228 32.5493 59.4188 32.0213 60.0481 31.648C60.6881 31.2747 61.3975 31.088 62.1761 31.088ZM65.4401 35.6C65.4401 34.9387 65.3068 34.3627 65.0401 33.872C64.7735 33.3813 64.4108 33.008 63.9521 32.752C63.5041 32.4853 63.0081 32.352 62.4641 32.352C61.9201 32.352 61.4241 32.48 60.9761 32.736C60.5281 32.992 60.1708 33.3653 59.9041 33.856C59.6375 34.3467 59.5041 34.9227 59.5041 35.584C59.5041 36.256 59.6375 36.8427 59.9041 37.344C60.1708 37.8347 60.5281 38.2133 60.9761 38.48C61.4241 38.736 61.9201 38.864 62.4641 38.864C63.0081 38.864 63.5041 38.736 63.9521 38.48C64.4108 38.2133 64.7735 37.8347 65.0401 37.344C65.3068 36.8427 65.4401 36.2613 65.4401 35.6ZM73.6446 31.072C74.7113 31.072 75.5753 31.3973 76.2366 32.048C76.898 32.688 77.2286 33.616 77.2286 34.832V40H75.7886V35.04C75.7886 34.1653 75.57 33.4987 75.1326 33.04C74.6953 32.5707 74.098 32.336 73.3406 32.336C72.5726 32.336 71.9593 32.576 71.5006 33.056C71.0526 33.536 70.8286 34.2347 70.8286 35.152V40H69.3726V31.232H70.8286V32.48C71.1166 32.032 71.506 31.6853 71.9966 31.44C72.498 31.1947 73.0473 31.072 73.6446 31.072ZM84.6246 29.808C84.3473 29.808 84.1126 29.712 83.9206 29.52C83.7286 29.328 83.6326 29.0933 83.6326 28.816C83.6326 28.5387 83.7286 28.304 83.9206 28.112C84.1126 27.92 84.3473 27.824 84.6246 27.824C84.8913 27.824 85.1153 27.92 85.2966 28.112C85.4886 28.304 85.5846 28.5387 85.5846 28.816C85.5846 29.0933 85.4886 29.328 85.2966 29.52C85.1153 29.712 84.8913 29.808 84.6246 29.808ZM85.3286 31.232V40H83.8726V31.232H85.3286ZM92.0821 31.072C93.1488 31.072 94.0128 31.3973 94.6741 32.048C95.3355 32.688 95.6661 33.616 95.6661 34.832V40H94.2261V35.04C94.2261 34.1653 94.0075 33.4987 93.5701 33.04C93.1328 32.5707 92.5355 32.336 91.7781 32.336C91.0101 32.336 90.3968 32.576 89.9381 33.056C89.4901 33.536 89.2661 34.2347 89.2661 35.152V40H87.8101V31.232H89.2661V32.48C89.5541 32.032 89.9435 31.6853 90.4341 31.44C90.9355 31.1947 91.4848 31.072 92.0821 31.072Z" fill="#FAFAFA"/>
</svg>
