<svg width="132" height="45" viewBox="0 0 132 45" fill="none" xmlns="http://www.w3.org/2000/svg">
<path d="M0 15C0 6.71573 6.71573 0 15 0H102C118.569 0 132 13.4315 132 30C132 38.2843 125.284 45 117 45H30C13.4315 45 0 31.5685 0 15Z" fill="#8BAA36"/>
<path d="M30.216 27L27.892 23.01H26.352V27H25.078V17.242H28.228C28.9653 17.242 29.586 17.368 30.09 17.62C30.6033 17.872 30.986 18.2127 31.238 18.642C31.49 19.0713 31.616 19.5613 31.616 20.112C31.616 20.784 31.42 21.3767 31.028 21.89C30.6453 22.4033 30.0667 22.744 29.292 22.912L31.742 27H30.216ZM26.352 21.988H28.228C28.9187 21.988 29.4367 21.82 29.782 21.484C30.1273 21.1387 30.3 20.6813 30.3 20.112C30.3 19.5333 30.1273 19.0853 29.782 18.768C29.446 18.4507 28.928 18.292 28.228 18.292H26.352V21.988ZM40.5956 22.87C40.5956 23.1127 40.5816 23.3693 40.5536 23.64H34.4216C34.4682 24.396 34.7249 24.9887 35.1916 25.418C35.6676 25.838 36.2416 26.048 36.9136 26.048C37.4642 26.048 37.9216 25.922 38.2856 25.67C38.6589 25.4087 38.9202 25.0633 39.0696 24.634H40.4416C40.2362 25.3713 39.8256 25.9733 39.2096 26.44C38.5936 26.8973 37.8282 27.126 36.9136 27.126C36.1856 27.126 35.5322 26.9627 34.9536 26.636C34.3842 26.3093 33.9362 25.8473 33.6096 25.25C33.2829 24.6433 33.1196 23.9433 33.1196 23.15C33.1196 22.3567 33.2782 21.6613 33.5956 21.064C33.9129 20.4667 34.3562 20.0093 34.9256 19.692C35.5042 19.3653 36.1669 19.202 36.9136 19.202C37.6416 19.202 38.2856 19.3607 38.8456 19.678C39.4056 19.9953 39.8349 20.434 40.1336 20.994C40.4416 21.5447 40.5956 22.17 40.5956 22.87ZM39.2796 22.604C39.2796 22.1187 39.1722 21.7033 38.9576 21.358C38.7429 21.0033 38.4489 20.7373 38.0756 20.56C37.7116 20.3733 37.3056 20.28 36.8576 20.28C36.2136 20.28 35.6629 20.4853 35.2056 20.896C34.7576 21.3067 34.5009 21.876 34.4356 22.604H39.2796ZM45.4412 19.202C46.1039 19.202 46.6826 19.3467 47.1772 19.636C47.6812 19.9253 48.0546 20.2893 48.2972 20.728V19.328H49.5852V27.168C49.5852 27.868 49.4359 28.4887 49.1372 29.03C48.8386 29.5807 48.4092 30.01 47.8492 30.318C47.2986 30.626 46.6546 30.78 45.9172 30.78C44.9092 30.78 44.0692 30.542 43.3972 30.066C42.7252 29.59 42.3286 28.9413 42.2072 28.12H43.4672C43.6072 28.5867 43.8966 28.96 44.3352 29.24C44.7739 29.5293 45.3012 29.674 45.9172 29.674C46.6172 29.674 47.1866 29.4547 47.6252 29.016C48.0732 28.5773 48.2972 27.9613 48.2972 27.168V25.558C48.0452 26.006 47.6719 26.3793 47.1772 26.678C46.6826 26.9767 46.1039 27.126 45.4412 27.126C44.7599 27.126 44.1392 26.958 43.5792 26.622C43.0286 26.286 42.5946 25.8147 42.2772 25.208C41.9599 24.6013 41.8012 23.9107 41.8012 23.136C41.8012 22.352 41.9599 21.666 42.2772 21.078C42.5946 20.4807 43.0286 20.0187 43.5792 19.692C44.1392 19.3653 44.7599 19.202 45.4412 19.202ZM48.2972 23.15C48.2972 22.5713 48.1806 22.0673 47.9472 21.638C47.7139 21.2087 47.3966 20.882 46.9952 20.658C46.6032 20.4247 46.1692 20.308 45.6932 20.308C45.2172 20.308 44.7832 20.42 44.3912 20.644C43.9992 20.868 43.6866 21.1947 43.4532 21.624C43.2199 22.0533 43.1032 22.5573 43.1032 23.136C43.1032 23.724 43.2199 24.2373 43.4532 24.676C43.6866 25.1053 43.9992 25.4367 44.3912 25.67C44.7832 25.894 45.2172 26.006 45.6932 26.006C46.1692 26.006 46.6032 25.894 46.9952 25.67C47.3966 25.4367 47.7139 25.1053 47.9472 24.676C48.1806 24.2373 48.2972 23.7287 48.2972 23.15ZM52.3962 18.082C52.1535 18.082 51.9482 17.998 51.7802 17.83C51.6122 17.662 51.5282 17.4567 51.5282 17.214C51.5282 16.9713 51.6122 16.766 51.7802 16.598C51.9482 16.43 52.1535 16.346 52.3962 16.346C52.6295 16.346 52.8255 16.43 52.9842 16.598C53.1522 16.766 53.2362 16.9713 53.2362 17.214C53.2362 17.4567 53.1522 17.662 52.9842 17.83C52.8255 17.998 52.6295 18.082 52.3962 18.082ZM53.0122 19.328V27H51.7382V19.328H53.0122ZM57.8995 27.126C57.3115 27.126 56.7841 27.028 56.3175 26.832C55.8508 26.6267 55.4821 26.3467 55.2115 25.992C54.9408 25.628 54.7915 25.2127 54.7635 24.746H56.0795C56.1168 25.1287 56.2941 25.4413 56.6115 25.684C56.9381 25.9267 57.3628 26.048 57.8855 26.048C58.3708 26.048 58.7535 25.9407 59.0335 25.726C59.3135 25.5113 59.4535 25.2407 59.4535 24.914C59.4535 24.578 59.3041 24.3307 59.0055 24.172C58.7068 24.004 58.2448 23.8407 57.6195 23.682C57.0501 23.5327 56.5835 23.3833 56.2195 23.234C55.8648 23.0753 55.5568 22.8467 55.2955 22.548C55.0435 22.24 54.9175 21.8387 54.9175 21.344C54.9175 20.952 55.0341 20.5927 55.2675 20.266C55.5008 19.9393 55.8321 19.6827 56.2615 19.496C56.6908 19.3 57.1808 19.202 57.7315 19.202C58.5808 19.202 59.2668 19.4167 59.7895 19.846C60.3121 20.2753 60.5921 20.8633 60.6295 21.61H59.3555C59.3275 21.2087 59.1641 20.8867 58.8655 20.644C58.5761 20.4013 58.1841 20.28 57.6895 20.28C57.2321 20.28 56.8681 20.378 56.5975 20.574C56.3268 20.77 56.1915 21.0267 56.1915 21.344C56.1915 21.596 56.2708 21.806 56.4295 21.974C56.5975 22.1327 56.8028 22.2633 57.0455 22.366C57.2975 22.4593 57.6428 22.5667 58.0815 22.688C58.6321 22.8373 59.0801 22.9867 59.4255 23.136C59.7708 23.276 60.0648 23.4907 60.3075 23.78C60.5595 24.0693 60.6901 24.4473 60.6995 24.914C60.6995 25.334 60.5828 25.712 60.3495 26.048C60.1161 26.384 59.7848 26.65 59.3555 26.846C58.9355 27.0327 58.4501 27.126 57.8995 27.126ZM64.0519 20.378V24.9C64.0519 25.2733 64.1313 25.5393 64.2899 25.698C64.4486 25.8473 64.7239 25.922 65.1159 25.922H66.0539V27H64.9059C64.1966 27 63.6646 26.8367 63.3099 26.51C62.9553 26.1833 62.7779 25.6467 62.7779 24.9V20.378H61.7839V19.328H62.7779V17.396H64.0519V19.328H66.0539V20.378H64.0519ZM68.8715 20.574C69.0955 20.1353 69.4129 19.7947 69.8235 19.552C70.2435 19.3093 70.7522 19.188 71.3495 19.188V20.504H71.0135C69.5855 20.504 68.8715 21.2787 68.8715 22.828V27H67.5975V19.328H68.8715V20.574ZM72.3442 23.136C72.3442 22.352 72.5029 21.666 72.8202 21.078C73.1375 20.4807 73.5715 20.0187 74.1222 19.692C74.6822 19.3653 75.3029 19.202 75.9842 19.202C76.6562 19.202 77.2395 19.3467 77.7342 19.636C78.2289 19.9253 78.5975 20.2893 78.8402 20.728V19.328H80.1282V27H78.8402V25.572C78.5882 26.02 78.2102 26.3933 77.7062 26.692C77.2115 26.9813 76.6329 27.126 75.9702 27.126C75.2889 27.126 74.6729 26.958 74.1222 26.622C73.5715 26.286 73.1375 25.8147 72.8202 25.208C72.5029 24.6013 72.3442 23.9107 72.3442 23.136ZM78.8402 23.15C78.8402 22.5713 78.7235 22.0673 78.4902 21.638C78.2569 21.2087 77.9395 20.882 77.5382 20.658C77.1462 20.4247 76.7122 20.308 76.2362 20.308C75.7602 20.308 75.3262 20.42 74.9342 20.644C74.5422 20.868 74.2295 21.1947 73.9962 21.624C73.7629 22.0533 73.6462 22.5573 73.6462 23.136C73.6462 23.724 73.7629 24.2373 73.9962 24.676C74.2295 25.1053 74.5422 25.4367 74.9342 25.67C75.3262 25.894 75.7602 26.006 76.2362 26.006C76.7122 26.006 77.1462 25.894 77.5382 25.67C77.9395 25.4367 78.2569 25.1053 78.4902 24.676C78.7235 24.2373 78.8402 23.7287 78.8402 23.15ZM83.8351 20.378V24.9C83.8351 25.2733 83.9145 25.5393 84.0731 25.698C84.2318 25.8473 84.5071 25.922 84.8991 25.922H85.8371V27H84.6891C83.9798 27 83.4478 26.8367 83.0931 26.51C82.7385 26.1833 82.5611 25.6467 82.5611 24.9V20.378H81.5671V19.328H82.5611V17.396H83.8351V19.328H85.8371V20.378H83.8351ZM88.0387 18.082C87.7961 18.082 87.5907 17.998 87.4227 17.83C87.2547 17.662 87.1707 17.4567 87.1707 17.214C87.1707 16.9713 87.2547 16.766 87.4227 16.598C87.5907 16.43 87.7961 16.346 88.0387 16.346C88.2721 16.346 88.4681 16.43 88.6267 16.598C88.7947 16.766 88.8787 16.9713 88.8787 17.214C88.8787 17.4567 88.7947 17.662 88.6267 17.83C88.4681 17.998 88.2721 18.082 88.0387 18.082ZM88.6547 19.328V27H87.3807V19.328H88.6547ZM94.172 27.126C93.4534 27.126 92.8 26.9627 92.212 26.636C91.6334 26.3093 91.176 25.8473 90.84 25.25C90.5134 24.6433 90.35 23.9433 90.35 23.15C90.35 22.366 90.518 21.6753 90.854 21.078C91.1994 20.4713 91.666 20.0093 92.254 19.692C92.842 19.3653 93.5 19.202 94.228 19.202C94.956 19.202 95.614 19.3653 96.202 19.692C96.79 20.0093 97.252 20.4667 97.588 21.064C97.9334 21.6613 98.106 22.3567 98.106 23.15C98.106 23.9433 97.9287 24.6433 97.574 25.25C97.2287 25.8473 96.7574 26.3093 96.16 26.636C95.5627 26.9627 94.9 27.126 94.172 27.126ZM94.172 26.006C94.6294 26.006 95.0587 25.8987 95.46 25.684C95.8614 25.4693 96.1834 25.1473 96.426 24.718C96.678 24.2887 96.804 23.766 96.804 23.15C96.804 22.534 96.6827 22.0113 96.44 21.582C96.1974 21.1527 95.88 20.8353 95.488 20.63C95.096 20.4153 94.6714 20.308 94.214 20.308C93.7474 20.308 93.318 20.4153 92.926 20.63C92.5434 20.8353 92.2354 21.1527 92.002 21.582C91.7687 22.0113 91.652 22.534 91.652 23.15C91.652 23.7753 91.764 24.3027 91.988 24.732C92.2214 25.1613 92.5294 25.4833 92.912 25.698C93.2947 25.9033 93.7147 26.006 94.172 26.006ZM103.519 19.188C104.452 19.188 105.208 19.4727 105.787 20.042C106.366 20.602 106.655 21.414 106.655 22.478V27H105.395V22.66C105.395 21.8947 105.204 21.3113 104.821 20.91C104.438 20.4993 103.916 20.294 103.253 20.294C102.581 20.294 102.044 20.504 101.643 20.924C101.251 21.344 101.055 21.9553 101.055 22.758V27H99.7811V19.328H101.055V20.42C101.307 20.028 101.648 19.7247 102.077 19.51C102.516 19.2953 102.996 19.188 103.519 19.188Z" fill="#FAFAFA"/>
</svg>
